HIERARCHY
ROOT root
{
	OFFSET 0.000000 0.000000 0.000000
	CHANNELS 6 Xposition Yposition Zposition Zrotation Yrotation Xrotation
	JOINT lhip
	{
		OFFSET 0.058581 -0.082280 -0.017664
		CHANNELS 3 Zrotation Yrotation Xrotation
		JOINT lknee
		{
			OFFSET 0.043451 -0.386469 0.008037
			CHANNELS 3 Zrotation Yrotation Xrotation
			JOINT lankle
			{
				OFFSET -0.014790 -0.426874 -0.037428
				CHANNELS 3 Zrotation Yrotation Xrotation
				JOINT ltoe
				{
					OFFSET 0.041054 -0.060286 0.122042
					CHANNELS 3 Zrotation Yrotation Xrotation
					End Site
					{
						OFFSET 0.000000 0.000000 0.000000
					}
				}
			}
		}
	}
	JOINT rhip
	{
		OFFSET -0.060310 -0.090513 -0.013543
		CHANNELS 3 Zrotation Yrotation Xrotation
		JOINT rknee
		{
			OFFSET -0.043257 -0.383688 -0.004843
			CHANNELS 3 Zrotation Yrotation Xrotation
			JOINT rankle
			{
				OFFSET 0.019056 -0.420046 -0.034562
				CHANNELS 3 Zrotation Yrotation Xrotation
				JOINT rtoe
				{
					OFFSET -0.034840 -0.062106 0.130323
					CHANNELS 3 Zrotation Yrotation Xrotation
					End Site
					{
						OFFSET 0.000000 0.000000 0.000000
					}
				}
			}
		}
	}
	JOINT lowerback
	{
		OFFSET 0.004439 0.124404 -0.038385
		CHANNELS 3 Zrotation Yrotation Xrotation
		JOINT upperback
		{
			OFFSET 0.004488 0.137956 0.026820
			CHANNELS 3 Zrotation Yrotation Xrotation
			JOINT chest
			{
				OFFSET -0.002265 0.056032 0.002855
				CHANNELS 3 Zrotation Yrotation Xrotation
				JOINT lowerneck
				{
					OFFSET -0.013390 0.211636 -0.033468
					CHANNELS 3 Zrotation Yrotation Xrotation
					JOINT upperneck
					{
						OFFSET 0.010113 0.088937 0.050410
						CHANNELS 3 Zrotation Yrotation Xrotation
						End Site
						{
							OFFSET 0.000000 0.000000 0.000000
						}
					}
				}
				JOINT lclavicle
				{
					OFFSET 0.071702 0.114000 -0.018898
					CHANNELS 3 Zrotation Yrotation Xrotation
					JOINT lshoulder
					{
						OFFSET 0.122921 0.045205 -0.019046
						CHANNELS 3 Zrotation Yrotation Xrotation
						JOINT lelbow
						{
							OFFSET 0.255332 -0.015649 -0.022946
							CHANNELS 3 Zrotation Yrotation Xrotation
							JOINT lwrist
							{
								OFFSET 0.265709 0.012698 -0.007375
								CHANNELS 3 Zrotation Yrotation Xrotation
								End Site
								{
									OFFSET 0.000000 0.000000 0.000000
								}
							}
						}
					}
				}
				JOINT rclavicle
				{
					OFFSET -0.082954 0.112472 -0.023707
					CHANNELS 3 Zrotation Yrotation Xrotation
					JOINT rshoulder
					{
						OFFSET -0.113228 0.046853 -0.008472
						CHANNELS 3 Zrotation Yrotation Xrotation
						JOINT relbow
						{
							OFFSET -0.260127 -0.014369 -0.031269
							CHANNELS 3 Zrotation Yrotation Xrotation
							JOINT rwrist
							{
								OFFSET -0.269108 0.006794 -0.006027
								CHANNELS 3 Zrotation Yrotation Xrotation
								End Site
								{
									OFFSET 0.000000 0.000000 0.000000
								}
							}
						}
					}
				}
			}
		}
	}
}
MOTION
Frames: 17
Frame Time: 0.033333
-0.104322 -0.147732 0.997439 -127.609032 -4.624422 82.652334 -7.094828 -8.269554 -3.618728 -6.340407 -19.683916 9.162243 -7.434426 -11.333711 -3.298353 0.000000 -0.000000 0.000000 -23.048911 -8.705148 8.165445 -8.430159 -11.081003 28.449821 15.829826 -3.368847 17.799195 0.000000 -0.000000 0.000000 8.528336 11.019829 5.576491 13.687041 -5.252506 6.320588 9.809286 3.337668 -10.204703 -9.156794 -26.152543 30.588843 6.503482 -19.942806 -2.494884 -7.809361 -35.818020 2.592192 -81.461959 -37.079637 26.664380 7.419139 -11.397720 -11.771293 0.191258 5.234463 -33.796804 18.355073 36.830883 5.913401 61.222878 34.629139 12.397244 -10.318080 8.689645 -15.830934 16.191471 -1.802362 -18.484683 
-0.114922 -0.149632 0.995201 -123.069209 -4.523323 82.867166 -7.638931 -10.674943 -4.547887 -7.570411 -20.511385 11.130019 -7.205533 -11.717701 -4.347503 0.000000 -0.000000 0.000000 -23.462537 -9.148958 9.913258 -7.673017 -9.935857 27.866174 16.956793 -3.729392 21.397958 0.000000 -0.000000 0.000000 8.423829 12.539687 4.424731 14.369706 -2.860647 4.413186 9.990686 5.679379 -10.036434 -6.496226 -30.845518 26.026635 5.320940 -24.248463 -0.382041 -9.014898 -31.024182 0.747291 -79.148074 -38.632391 25.759224 11.954327 -17.855164 -20.273970 3.659435 3.789244 -36.636075 24.877708 37.432991 8.645799 50.392179 43.896916 10.916834 -8.032825 13.044099 -4.270145 21.820466 -2.955073 -1.329157 
-0.124733 -0.153794 0.995527 -119.886777 -4.737314 83.786514 -8.353995 -11.911009 -5.627555 -7.889108 -20.412395 11.725367 -7.451144 -12.668397 -4.710848 0.000000 -0.000000 0.000000 -24.095162 -9.526653 9.950855 -7.360421 -9.369660 27.851599 18.325937 -4.033495 25.264678 0.000000 -0.000000 0.000000 9.019495 14.224631 4.100480 13.556351 0.238514 2.543963 9.378884 7.446522 -9.528052 -2.730269 -34.688633 20.587445 5.512986 -26.404693 0.520605 -8.110125 -27.648946 -2.233563 -77.034638 -40.882145 24.850449 17.682110 -24.923710 -25.920398 11.253346 0.683970 -34.614571 23.265956 39.114489 6.927248 46.072533 51.024743 10.978742 -8.291430 20.406960 1.150596 20.711795 -1.994419 8.343974 
-0.134371 -0.157423 0.998597 -116.428763 -5.161626 85.329515 -9.123328 -13.266125 -7.108169 -7.932288 -20.307010 11.905003 -8.700024 -13.419503 -4.411358 0.000000 -0.000000 0.000000 -24.639428 -10.558960 9.471443 -7.535274 -9.669485 27.573583 19.102919 -4.698809 30.527740 0.000000 -0.000000 0.000000 9.881544 15.528242 4.334911 11.567829 2.707267 -0.169344 8.345997 8.182487 -9.307329 -0.037717 -36.807458 16.413159 6.371069 -26.036131 1.173860 -4.822732 -25.588473 -5.777336 -75.058168 -41.769389 23.498727 26.135769 -31.589380 -31.980499 20.258887 -1.728100 -34.003119 16.951539 41.407596 2.632607 47.767424 57.409942 12.970016 -10.898487 26.466571 1.350900 16.655328 -0.050610 14.786117 
-0.143810 -0.159491 1.003018 -112.772533 -5.496138 86.988044 -9.802280 -14.654753 -8.035676 -7.331145 -20.850814 10.844096 -10.427363 -14.131337 -3.954214 0.000000 -0.000000 0.000000 -24.254787 -10.943564 9.032459 -8.236427 -10.703726 27.223917 19.662240 -5.623445 34.250908 0.000000 -0.000000 0.000000 10.689230 16.177306 5.089367 9.050209 4.734247 -3.704057 7.177202 8.887366 -8.929831 2.757184 -37.384404 11.646761 6.179624 -26.780054 2.774256 -1.217549 -24.365494 -9.069123 -72.026436 -43.259372 21.524620 36.700400 -34.801043 -39.531120 26.524542 -5.337340 -33.194124 8.343018 43.211491 -3.712406 50.269052 63.561129 15.841502 -13.295607 30.387141 0.880970 10.274697 3.790019 16.986339 
-0.153102 -0.160388 1.007165 -109.319818 -5.533697 88.194640 -10.115548 -15.311448 -8.198780 -6.678022 -21.765458 9.372434 -12.728317 -15.381023 -2.926273 0.000000 -0.000000 0.000000 -23.003059 -10.758189 9.202537 -8.517482 -10.917288 26.490264 19.396874 -6.315385 36.646156 0.000000 -0.000000 0.000000 11.179280 16.026003 4.652244 7.071529 5.851478 -4.063561 6.381926 10.083134 -9.131151 3.999306 -37.569008 7.957151 6.290598 -26.176762 2.787837 0.960748 -24.174356 -12.836048 -65.676446 -44.746012 17.486989 48.346607 -36.100740 -48.174129 29.585260 -8.622193 -30.244259 0.444265 45.932626 -9.866654 44.939848 69.174810 11.939856 -15.524600 33.146647 -1.496539 5.069582 7.353675 18.462706 
-0.163133 -0.159953 1.010110 -105.722641 -5.658420 89.494232 -10.411136 -16.337095 -8.409300 -6.159134 -22.938263 8.129721 -14.232252 -16.155566 -2.232917 0.000000 -0.000000 0.000000 -21.687601 -10.823449 9.489437 -8.796474 -11.454983 25.679334 19.185660 -7.564021 38.385413 0.000000 -0.000000 0.000000 11.399419 16.246760 4.989887 4.674441 7.084821 -5.935199 5.235323 10.971704 -9.798742 4.410607 -37.818057 4.978671 6.000607 -25.921965 3.347350 1.702628 -24.206824 -16.031719 -57.115226 -46.888097 12.784076 57.246325 -36.969770 -54.999126 30.249924 -12.026623 -26.362958 -5.226355 47.900307 -15.368852 34.651167 72.289272 4.161985 -19.331513 36.531282 -5.288841 0.518561 10.850620 20.408345 
-0.171302 -0.160118 1.011230 -102.431684 -6.201536 92.650447 -9.339234 -21.270325 -10.689089 -7.630995 -26.115359 6.858691 -9.897320 -11.218233 -3.740974 0.000000 -0.000000 0.000000 -20.728841 -10.029670 8.490807 -5.557980 -9.981105 23.768005 15.918880 -10.722416 38.821475 0.000000 -0.000000 0.000000 10.153566 18.159537 1.102186 3.936839 8.754323 -3.143015 1.925591 10.455523 -13.520748 7.500426 -37.171359 2.782318 2.556651 -26.308485 1.548514 -1.156212 -22.737935 -13.728487 -43.988084 -54.967095 7.903526 63.022565 -35.825467 -64.199406 28.613296 -16.927880 -16.682585 -1.508465 46.072559 -10.268090 -2.072926 79.649281 -25.180115 -22.516964 38.682963 -12.766539 -3.201064 14.249057 23.401435 
-0.180796 -0.158902 1.011593 -99.681198 -6.275045 94.111926 -9.263451 -22.435838 -11.889485 -7.751993 -27.396611 7.601661 -9.704963 -11.393041 -4.314967 0.000000 -0.000000 0.000000 -19.578495 -10.446597 8.727483 -5.168021 -9.698693 22.401546 14.992017 -11.253892 39.764332 0.000000 -0.000000 0.000000 9.373932 19.291047 0.471750 2.368686 9.767351 -3.673372 0.865340 11.018309 -14.501428 7.603418 -35.981282 -0.398697 1.033737 -26.478413 2.329136 0.155179 -23.197051 -16.649060 -33.056437 -55.825901 1.340919 69.514462 -36.237079 -69.235288 29.727290 -19.637424 -15.651451 -5.083630 47.005653 -13.970811 -19.535540 78.461946 -39.810465 -28.374617 43.832769 -16.739079 -7.519500 17.200631 24.564486 
-0.190683 -0.157967 1.011257 -97.480391 -6.220244 95.399531 -9.075770 -23.542678 -12.988852 -7.937307 -28.301764 8.437504 -9.415247 -11.723079 -4.630967 0.000000 -0.000000 0.000000 -18.768459 -11.131975 9.136369 -4.778547 -9.775874 20.921711 14.872890 -11.653203 40.713600 0.000000 -0.000000 0.000000 8.806934 20.480434 -0.197527 0.821132 10.608454 -4.489034 -0.129469 11.647932 -15.152429 6.533922 -35.013052 -1.615143 0.503387 -26.488830 2.835015 1.971284 -23.073459 -19.470358 -25.339904 -55.907994 -2.981706 76.047508 -36.061326 -74.338101 31.142373 -20.602760 -14.428032 -8.558381 47.615179 -17.039822 -29.790808 76.610638 -48.241896 -35.388006 47.983309 -22.047578 -10.472057 20.007066 25.123700 
-0.200588 -0.157157 1.010136 -95.566786 -6.211341 96.229133 -8.978835 -24.124065 -13.553173 -8.366940 -29.352851 9.158328 -9.355661 -12.082307 -4.774638 0.000000 -0.000000 0.000000 -18.314106 -11.943067 10.040856 -4.445701 -10.135132 19.468251 15.255927 -12.040934 41.152883 0.000000 -0.000000 0.000000 8.270033 21.410725 -0.586889 -0.547560 11.238907 -5.417749 -0.914185 11.997670 -15.651368 5.037742 -34.528861 -1.074163 0.259324 -26.121907 2.913605 3.150932 -22.669097 -21.289791 -18.133975 -55.282321 -7.376809 80.939781 -36.337578 -76.958275 33.951456 -22.437504 -11.952632 -11.711479 48.423103 -19.756965 -36.429355 74.804062 -53.749815 -41.087052 50.774142 -26.704886 -14.036866 22.937904 25.175052 
-0.209865 -0.157484 1.008584 -94.198143 -6.189841 97.053152 -8.700109 -24.776785 -14.278708 -8.978311 -29.933686 9.891824 -9.344003 -12.306868 -4.794128 0.000000 -0.000000 0.000000 -17.927272 -12.308979 10.690890 -4.071747 -10.322608 18.024735 15.517545 -12.317333 42.096977 0.000000 -0.000000 0.000000 7.700965 22.320591 -1.676515 -1.440271 11.687717 -5.946714 -1.593247 12.117050 -15.865244 4.393398 -34.254135 -0.162478 -0.065904 -26.661984 3.244831 3.858494 -22.395103 -22.316456 -11.936988 -54.288961 -11.637779 85.257692 -35.708176 -79.000451 34.425174 -24.617576 -9.073416 -13.831811 49.060706 -21.684896 -40.276277 73.598169 -56.525190 -45.838620 53.129173 -30.169070 -17.667113 25.454016 24.523237 
-0.218310 -0.158448 1.007257 -93.227262 -6.186693 97.519767 -8.778839 -25.068104 -14.543307 -9.402409 -30.400857 10.520980 -9.326359 -12.327565 -4.718470 0.000000 -0.000000 0.000000 -17.663122 -12.343343 11.313820 -3.836067 -9.998829 16.936088 15.641665 -11.921749 42.623667 0.000000 -0.000000 0.000000 7.613631 22.975325 -2.450230 -2.291802 11.996508 -6.331690 -2.196181 12.221512 -16.150707 3.609665 -34.133327 1.165563 -0.562985 -26.900057 3.713433 4.112412 -22.673924 -22.628134 -7.542641 -52.572604 -14.444874 89.582008 -35.162549 -81.162214 36.283187 -27.007101 -6.311308 -14.776363 50.120081 -22.415016 -42.085820 72.455261 -57.730695 -49.527834 55.368765 -33.184867 -21.504213 27.856181 22.882272 
-0.225098 -0.159453 1.005795 -92.491129 -6.347714 98.049992 -8.879963 -25.290390 -14.950473 -9.895973 -30.740058 11.131151 -9.216331 -12.431965 -4.705486 0.000000 -0.000000 0.000000 -17.619567 -12.420840 11.627481 -3.687195 -9.571435 16.222321 16.216165 -11.829844 42.704581 0.000000 -0.000000 0.000000 7.685484 23.328210 -2.717037 -3.236612 12.283272 -6.609938 -2.845613 12.203270 -16.225323 3.496328 -33.687849 0.328330 -0.847642 -27.010190 4.190666 3.918489 -21.992734 -23.857966 -4.766306 -51.866187 -16.181672 92.530666 -35.296667 -82.049885 37.311866 -28.695083 -4.473020 -16.635101 49.690610 -23.996963 -43.913471 72.446170 -59.279780 -52.915826 56.568636 -36.325804 -25.364440 30.316422 20.402895 
-0.231029 -0.160754 1.003994 -92.074204 -6.395815 98.495073 -8.828859 -25.514269 -15.229696 -10.147809 -30.815820 11.318131 -9.419805 -12.799084 -4.604953 0.000000 -0.000000 0.000000 -17.572562 -12.318596 11.879596 -3.524704 -9.722027 15.638300 16.126873 -11.500140 42.631787 0.000000 -0.000000 0.000000 7.566189 23.667807 -3.532827 -3.654946 12.523517 -6.381381 -3.349916 12.023876 -16.646946 3.975173 -32.731705 -0.170896 -2.235937 -27.493281 5.138883 3.957159 -21.453254 -23.906566 -3.007040 -51.681667 -17.530714 94.189435 -35.227532 -81.711378 38.230624 -30.771354 -2.284864 -16.457871 49.680152 -23.798100 -43.757017 72.332965 -59.026727 -55.842965 57.542615 -38.470240 -28.575303 32.105965 17.157402 
-0.235175 -0.161630 1.002330 -92.021840 -6.651919 98.897558 -8.898849 -25.587762 -15.661583 -10.551439 -30.690188 11.591353 -9.462101 -12.908466 -4.472005 0.000000 -0.000000 0.000000 -17.901583 -12.484571 11.785304 -3.519047 -9.984359 15.507135 16.201804 -11.518882 42.660415 0.000000 -0.000000 0.000000 7.592985 23.851273 -3.781209 -4.173117 12.781778 -6.607479 -3.878193 12.054561 -16.467883 4.253660 -32.026594 -0.995353 -3.104262 -27.964087 6.025795 3.857379 -21.296838 -24.227741 -1.444768 -51.438357 -18.148049 93.883609 -35.561639 -80.482745 38.885258 -32.334262 -0.722897 -16.182914 49.450819 -23.735660 -42.638125 72.206888 -57.488490 -57.410221 57.533351 -40.198412 -32.240406 33.380985 14.589730 
-0.238456 -0.162179 1.000869 -92.219994 -6.876209 99.188361 -8.997885 -25.514614 -15.900556 -10.773270 -30.683355 11.619298 -9.554185 -12.914759 -4.543594 0.000000 -0.000000 0.000000 -18.190675 -12.630880 11.642259 -3.621082 -10.383514 15.556216 16.397087 -11.983915 42.389431 0.000000 -0.000000 0.000000 7.519613 23.963965 -3.856583 -4.428376 12.755606 -6.804067 -4.145940 12.099546 -16.269060 3.797986 -31.336830 -0.745347 -2.178910 -27.953091 4.504655 4.031289 -21.286738 -24.259522 -0.717394 -50.573813 -18.086249 92.465871 -36.886632 -78.408756 35.715837 -32.945939 0.570393 -15.767196 49.606691 -23.403387 -40.905210 71.889689 -55.914006 -57.720089 56.851518 -40.539865 -33.604434 33.589315 13.087607 
